<svg width="32" height="32" viewBox="0 0 32 32" fill="none" xmlns="http://www.w3.org/2000/svg">
  <defs>
    <linearGradient id="gradient1" x1="0%" y1="0%" x2="100%" y2="100%">
      <stop offset="0%" style="stop-color:#ff6b6b;stop-opacity:1" />
      <stop offset="50%" style="stop-color:#4ecdc4;stop-opacity:1" />
      <stop offset="100%" style="stop-color:#45b7d1;stop-opacity:1" />
    </linearGradient>
    <linearGradient id="gradient2" x1="0%" y1="0%" x2="100%" y2="100%">
      <stop offset="0%" style="stop-color:#45b7d1;stop-opacity:1" />
      <stop offset="100%" style="stop-color:#4ecdc4;stop-opacity:1" />
    </linearGradient>
    <filter id="glow">
      <feGaussianBlur stdDeviation="2" result="coloredBlur"/>
      <feMerge> 
        <feMergeNode in="coloredBlur"/>
        <feMergeNode in="SourceGraphic"/>
      </feMerge>
    </filter>
  </defs>
  
  <!-- Background Circle -->
  <circle cx="16" cy="16" r="15" fill="url(#gradient1)" filter="url(#glow)"/>
  
  <!-- Game Controller Base -->
  <rect x="6" y="12" width="20" height="10" rx="5" ry="5" fill="white" opacity="0.9"/>
  
  <!-- D-Pad -->
  <rect x="9" y="14.5" width="1.5" height="5" rx="0.75" fill="url(#gradient2)"/>
  <rect x="7.25" y="16.25" width="5" height="1.5" rx="0.75" fill="url(#gradient2)"/>
  
  <!-- Action Buttons -->
  <circle cx="22" cy="15.5" r="1.2" fill="url(#gradient2)"/>
  <circle cx="20" cy="17.5" r="1.2" fill="url(#gradient2)"/>
  
  <!-- Center Logo -->
  <circle cx="16" cy="17" r="2" fill="none" stroke="url(#gradient2)" stroke-width="1.5"/>
  <polygon points="16,15.5 17.2,18 14.8,18" fill="url(#gradient2)"/>
  
  <!-- Scout Star -->
  <polygon points="16,6 17.2,9 20,9 17.9,11 18.6,14 16,12.5 13.4,14 14.1,11 12,9 14.8,9" fill="white" opacity="0.8"/>
</svg>
