<svg width="64" height="64" viewBox="0 0 64 64" fill="none" xmlns="http://www.w3.org/2000/svg">
  <defs>
    <linearGradient id="mainGradient" x1="0%" y1="0%" x2="100%" y2="100%">
      <stop offset="0%" style="stop-color:#ff6b6b;stop-opacity:1" />
      <stop offset="35%" style="stop-color:#4ecdc4;stop-opacity:1" />
      <stop offset="70%" style="stop-color:#45b7d1;stop-opacity:1" />
      <stop offset="100%" style="stop-color:#ff6b6b;stop-opacity:1" />
    </linearGradient>
    <linearGradient id="controllerGradient" x1="0%" y1="0%" x2="100%" y2="100%">
      <stop offset="0%" style="stop-color:#45b7d1;stop-opacity:1" />
      <stop offset="100%" style="stop-color:#4ecdc4;stop-opacity:1" />
    </linearGradient>
    <linearGradient id="whiteGradient" x1="0%" y1="0%" x2="100%" y2="100%">
      <stop offset="0%" style="stop-color:#ffffff;stop-opacity:0.95" />
      <stop offset="100%" style="stop-color:#f8f9fa;stop-opacity:0.9" />
    </linearGradient>
    <filter id="glow" x="-50%" y="-50%" width="200%" height="200%">
      <feGaussianBlur stdDeviation="3" result="coloredBlur"/>
      <feMerge> 
        <feMergeNode in="coloredBlur"/>
        <feMergeNode in="SourceGraphic"/>
      </feMerge>
    </filter>
    <filter id="innerShadow">
      <feGaussianBlur in="SourceGraphic" stdDeviation="2"/>
      <feOffset dx="1" dy="1" result="offset"/>
      <feComposite in="SourceGraphic" in2="offset" operator="over"/>
    </filter>
  </defs>
  
  <!-- Background Circle with Gradient -->
  <circle cx="32" cy="32" r="30" fill="url(#mainGradient)" filter="url(#glow)"/>
  <circle cx="32" cy="32" r="28" fill="none" stroke="rgba(255,255,255,0.2)" stroke-width="1"/>
  
  <!-- Game Controller Base -->
  <rect x="12" y="24" width="40" height="20" rx="10" ry="10" fill="url(#whiteGradient)" filter="url(#innerShadow)"/>
  <rect x="13" y="25" width="38" height="18" rx="9" ry="9" fill="none" stroke="rgba(0,0,0,0.1)" stroke-width="0.5"/>
  
  <!-- D-Pad -->
  <rect x="18" y="29" width="3" height="10" rx="1.5" fill="url(#controllerGradient)"/>
  <rect x="14.5" y="32.5" width="10" height="3" rx="1.5" fill="url(#controllerGradient)"/>
  
  <!-- Action Buttons -->
  <circle cx="44" cy="31" r="2.5" fill="url(#controllerGradient)" opacity="0.9"/>
  <circle cx="40" cy="35" r="2.5" fill="url(#controllerGradient)" opacity="0.9"/>
  <circle cx="48" cy="35" r="2.5" fill="url(#controllerGradient)" opacity="0.9"/>
  <circle cx="44" cy="39" r="2.5" fill="url(#controllerGradient)" opacity="0.9"/>
  
  <!-- Center Logo Circle -->
  <circle cx="32" cy="34" r="4.5" fill="none" stroke="url(#controllerGradient)" stroke-width="2.5"/>
  <circle cx="32" cy="34" r="3" fill="none" stroke="rgba(255,255,255,0.3)" stroke-width="1"/>
  
  <!-- Center Play/Scout Symbol -->
  <polygon points="32,30 35.5,34 32,38 28.5,34" fill="url(#controllerGradient)" opacity="0.8"/>
  
  <!-- Scout Star (Top) -->
  <g transform="translate(32,12)">
    <polygon points="0,-8 2.4,-2.4 8,-2.4 3.2,1.6 5.6,7.2 0,3.2 -5.6,7.2 -3.2,1.6 -8,-2.4 -2.4,-2.4" 
             fill="white" opacity="0.9" filter="url(#glow)"/>
    <polygon points="0,-6 1.8,-1.8 6,-1.8 2.4,1.2 4.2,5.4 0,2.4 -4.2,5.4 -2.4,1.2 -6,-1.8 -1.8,-1.8" 
             fill="url(#mainGradient)" opacity="0.7"/>
  </g>
  
  <!-- Gaming Elements -->
  <circle cx="20" cy="16" r="1.5" fill="white" opacity="0.6"/>
  <circle cx="44" cy="16" r="1.5" fill="white" opacity="0.6"/>
  <circle cx="16" cy="48" r="1.5" fill="white" opacity="0.6"/>
  <circle cx="48" cy="48" r="1.5" fill="white" opacity="0.6"/>
</svg>
